<?xml version="1.0" standalone="no"?><!DOCTYPE svg PUBLIC "-//W3C//DTD SVG 1.1//EN" "http://www.w3.org/Graphics/SVG/1.1/DTD/svg11.dtd"><svg t="1768546598975" class="icon" viewBox="0 0 1024 1024" version="1.1" xmlns="http://www.w3.org/2000/svg" p-id="5841" id="mx_n_1768546598975" width="32" height="32" xmlns:xlink="http://www.w3.org/1999/xlink"><path d="M752 896h-640a47.936 47.936 0 0 1-48-48v-288a48.128 48.128 0 0 1 48-48.064h160a48.064 48.064 0 0 1 47.808 48.064v240.192h64V176.128a47.936 47.936 0 0 1 47.872-48h160a48 48 0 0 1 48.064 48v624.064h64V368.064a48 48 0 0 1 48.064-48h160a48.064 48.064 0 0 1 48 48v480a48.064 48.064 0 0 1-48 48z m112-96v-384h-64v384z m-320 0v-576h-64v576z m-320 0v-192h-64v192z" fill="#585858" p-id="5842"></path></svg>